<svg version="1" xmlns="http://www.w3.org/2000/svg" width="400" height="400" viewBox="0 0 300.000000 300.000000"><path d="M0 150v150h300V0H0v150zm163-94.6c0 .2-6.5 13.5-14.4 29.7-8 16.2-16 33.2-18 37.9-3 7.4-3.2 8.5-1.8 8.8.9.1 10-.8 20.1-2.1l18.3-2.4 1.9 3.1c1 1.7 1.9 3.5 1.9 4.1 0 .5 5.8-10.7 12.8-25 9.8-19.7 24.3-47.8 26.7-51.2.2-.3 31-3.3 33.6-3.3 1.3 0-.3 3.9-7.6 18.2-21.8 42.8-31 66.4-46.9 120.8-3.6 12.4-7 23.3-7.4 24.4-.6 1.5-5.3 3-22.2 7.1-11.8 2.9-21.6 4.9-21.8 4.5-.5-1.2 6.7-23.9 15-47.3 3.8-10.9 6.8-20.1 6.5-20.3-.2-.3-10 .7-21.6 2.1-11.7 1.4-21.6 2.5-22.1 2.5-1.1 0-3.2 6.8-10.6 34.9-3.2 11.9-5.9 21.8-6 21.9-.4.6-43.6 11.3-44 10.9-.5-.5 11-39.3 17.1-57.3 10-29.8 25.3-63.4 46.4-102.1l9.4-17.1 6.1-.8c16-1.8 28.6-2.7 28.6-2z"/></svg>